<?xml version="1.0" encoding="UTF-8"?>
<svg xmlns="http://www.w3.org/2000/svg" xmlns:xlink="http://www.w3.org/1999/xlink" width="239px" height="225px" viewBox="0 0 239 225" version="1.1">
<g id="surface1">
<path style=" stroke:none;fill-rule:nonzero;fill:rgb(94.901961%,94.901961%,94.901961%);fill-opacity:1;" d="M 23.949219 205.003906 L 23.582031 196.769531 C 19.769531 194.730469 15.515625 193.652344 11.195312 193.628906 C 17.144531 198.5 16.402344 207.890625 20.433594 214.441406 C 23.015625 218.558594 27.324219 221.277344 32.148438 221.832031 L 37.128906 224.886719 C 38.511719 217.167969 36.449219 209.230469 31.484375 203.164062 C 30.09375 201.496094 28.496094 200.011719 26.734375 198.742188 C 25.542969 201.890625 23.949219 205.003906 23.949219 205.003906 Z M 23.949219 205.003906 "/>
<path style=" stroke:none;fill-rule:nonzero;fill:rgb(100%,100%,100%);fill-opacity:1;" d="M 87.378906 53.773438 L 158.628906 53.773438 C 161.625 53.773438 164.058594 56.207031 164.058594 59.210938 L 164.058594 96.050781 C 164.058594 99.054688 161.625 101.488281 158.628906 101.488281 L 87.378906 101.488281 C 84.378906 101.488281 81.949219 99.054688 81.949219 96.050781 L 81.949219 59.210938 C 81.949219 56.207031 84.378906 53.773438 87.378906 53.773438 Z M 87.378906 53.773438 "/>
<path style=" stroke:none;fill-rule:nonzero;fill:rgb(24.705882%,23.921569%,33.72549%);fill-opacity:1;" d="M 158.628906 101.855469 L 87.378906 101.855469 C 84.179688 101.851562 81.585938 99.253906 81.582031 96.050781 L 81.582031 59.210938 C 81.585938 56.003906 84.179688 53.410156 87.378906 53.40625 L 158.628906 53.40625 C 161.828125 53.410156 164.421875 56.007812 164.425781 59.210938 L 164.425781 96.050781 C 164.421875 99.253906 161.828125 101.851562 158.628906 101.855469 Z M 87.378906 54.140625 C 84.582031 54.144531 82.316406 56.410156 82.3125 59.210938 L 82.3125 96.050781 C 82.316406 98.851562 84.582031 101.117188 87.378906 101.121094 L 158.628906 101.121094 C 161.421875 101.117188 163.6875 98.851562 163.691406 96.050781 L 163.691406 59.210938 C 163.6875 56.410156 161.421875 54.144531 158.628906 54.140625 Z M 87.378906 54.140625 "/>
<path style=" stroke:none;fill-rule:nonzero;fill:rgb(94.901961%,94.901961%,94.901961%);fill-opacity:1;" d="M 233.40625 48.082031 L 162.15625 48.082031 C 159.058594 48.078125 156.546875 45.566406 156.542969 42.460938 L 156.542969 5.621094 C 156.546875 2.519531 159.058594 0.00390625 162.15625 0 L 233.40625 0 C 236.503906 0.00390625 239.015625 2.519531 239.019531 5.621094 L 239.019531 42.460938 C 239.015625 45.566406 236.503906 48.078125 233.40625 48.082031 Z M 233.40625 48.082031 "/>
<path style=" stroke:none;fill-rule:nonzero;fill:rgb(94.901961%,94.901961%,94.901961%);fill-opacity:1;" d="M 233.40625 155.261719 L 162.15625 155.261719 C 159.058594 155.257812 156.546875 152.742188 156.542969 149.640625 L 156.542969 112.800781 C 156.546875 109.695312 159.058594 107.179688 162.15625 107.179688 L 233.40625 107.179688 C 236.503906 107.179688 239.015625 109.695312 239.019531 112.800781 L 239.019531 149.640625 C 239.015625 152.742188 236.503906 155.257812 233.40625 155.261719 Z M 233.40625 155.261719 "/>
<path style=" stroke:none;fill-rule:nonzero;fill:rgb(24.705882%,23.921569%,33.72549%);fill-opacity:1;" d="M 143.496094 72.371094 C 142.527344 68.832031 139.539062 66.214844 135.90625 65.726562 C 135.867188 65.71875 135.832031 65.726562 135.792969 65.726562 C 135.742188 65.707031 135.6875 65.695312 135.636719 65.6875 C 127.347656 64.558594 117.78125 68.734375 114.328125 77.015625 C 112.617188 74.628906 109.890625 73.085938 106.976562 73.238281 C 103.253906 73.433594 99.972656 76.289062 98.964844 80.039062 C 98.851562 80.503906 99.039062 80.988281 99.433594 81.253906 C 99.972656 81.738281 100.625 82.085938 101.328125 82.265625 C 102.832031 82.601562 104.34375 82.910156 105.859375 83.1875 C 108.816406 83.734375 111.789062 84.175781 114.777344 84.511719 C 120.84375 85.195312 126.949219 85.4375 133.046875 85.238281 C 135.078125 85.171875 137.039062 85.101562 138.898438 84.15625 C 140.269531 83.4375 141.425781 82.375 142.253906 81.070312 C 143.875 78.472656 144.324219 75.316406 143.496094 72.371094 Z M 143.496094 72.371094 "/>
<path style=" stroke:none;fill-rule:nonzero;fill:rgb(100%,100%,100%);fill-opacity:1;" d="M 142.582031 72.808594 C 142.132812 71.273438 141.238281 69.90625 140.011719 68.882812 C 138.734375 67.839844 137.191406 67.175781 135.558594 66.964844 L 135.460938 66.964844 L 135.367188 66.945312 C 135.339844 66.9375 135.308594 66.929688 135.277344 66.925781 C 132.546875 66.601562 129.777344 66.796875 127.117188 67.511719 C 122.007812 68.855469 117.164062 72.042969 114.90625 77.183594 L 114.582031 77.921875 L 114.101562 77.277344 C 112.597656 75.21875 110.214844 73.984375 107.667969 73.945312 C 107.546875 73.945312 107.425781 73.949219 107.300781 73.953125 C 103.8125 74.179688 100.847656 76.574219 99.890625 79.9375 C 99.839844 80.183594 99.953125 80.429688 100.167969 80.554688 L 100.203125 80.582031 C 100.679688 80.984375 101.242188 81.273438 101.84375 81.417969 C 103.308594 81.730469 104.796875 82.019531 106.265625 82.273438 C 109.121094 82.773438 112.046875 83.1875 114.96875 83.5 C 120.128906 84.054688 125.320312 84.296875 130.515625 84.226562 C 131.273438 84.214844 132.03125 84.199219 132.789062 84.175781 C 134.738281 84.117188 136.582031 84.058594 138.328125 83.214844 C 139.582031 82.59375 140.648438 81.660156 141.433594 80.5 C 142.929688 78.230469 143.351562 75.417969 142.582031 72.808594 Z M 142.582031 72.808594 "/>
<path style=" stroke:none;fill-rule:nonzero;fill:rgb(32.54902%,90.196078%,85.882353%);fill-opacity:1;" d="M 130.515625 84.226562 C 125.320312 84.296875 120.128906 84.054688 114.96875 83.5 C 112.046875 83.1875 109.121094 82.773438 106.265625 82.273438 C 104.796875 82.019531 103.308594 81.730469 101.84375 81.417969 C 101.242188 81.273438 100.679688 80.984375 100.203125 80.582031 L 100.167969 80.554688 C 99.953125 80.429688 99.839844 80.183594 99.890625 79.9375 C 100.847656 76.574219 103.8125 74.179688 107.300781 73.953125 C 107.425781 73.949219 107.546875 73.945312 107.667969 73.945312 C 110.214844 73.984375 112.597656 75.21875 114.101562 77.277344 L 114.582031 77.921875 L 114.90625 77.183594 C 117.164062 72.042969 122.007812 68.855469 127.117188 67.511719 C 128.148438 68.441406 128.8125 69.875 128.433594 71.203125 C 127.980469 72.8125 126.183594 73.816406 125.882812 75.460938 C 125.605469 76.960938 126.679688 78.359375 127.78125 79.410156 C 128.886719 80.457031 130.164062 81.511719 130.484375 83 C 130.570312 83.402344 130.582031 83.820312 130.515625 84.226562 Z M 130.515625 84.226562 "/>
<path style=" stroke:none;fill-rule:nonzero;fill:rgb(24.705882%,23.921569%,33.72549%);fill-opacity:1;" d="M 139.1875 75.40625 C 139.1875 77.75 137.292969 79.648438 134.953125 79.648438 C 132.609375 79.648438 130.714844 77.75 130.714844 75.40625 C 130.714844 73.0625 132.609375 71.164062 134.953125 71.164062 C 137.292969 71.164062 139.1875 73.0625 139.1875 75.40625 Z M 139.1875 75.40625 "/>
<path style=" stroke:none;fill-rule:nonzero;fill:rgb(100%,100%,100%);fill-opacity:1;" d="M 136.726562 74.953125 L 135.136719 73.363281 C 135.035156 73.257812 134.867188 73.257812 134.765625 73.363281 L 133.175781 74.953125 C 133.109375 75.019531 133.082031 75.117188 133.105469 75.210938 C 133.128906 75.300781 133.203125 75.375 133.292969 75.398438 C 133.386719 75.421875 133.484375 75.394531 133.550781 75.328125 L 134.6875 74.191406 L 134.6875 77.261719 C 134.6875 77.410156 134.804688 77.527344 134.953125 77.527344 C 135.097656 77.527344 135.214844 77.410156 135.214844 77.261719 L 135.214844 74.191406 L 136.351562 75.328125 C 136.457031 75.433594 136.625 75.429688 136.726562 75.328125 C 136.828125 75.226562 136.832031 75.058594 136.726562 74.953125 Z M 136.726562 74.953125 "/>
<path style=" stroke:none;fill-rule:nonzero;fill:rgb(100%,100%,100%);fill-opacity:1;" d="M 211.710938 34.890625 L 186.425781 34.890625 C 185.355469 34.890625 184.484375 34.019531 184.484375 32.945312 L 184.484375 9.835938 C 184.484375 8.761719 185.355469 7.894531 186.425781 7.890625 L 211.710938 7.890625 C 212.78125 7.894531 213.648438 8.761719 213.652344 9.835938 L 213.652344 32.945312 C 213.648438 34.019531 212.78125 34.890625 211.710938 34.890625 Z M 211.710938 34.890625 "/>
<path style=" stroke:none;fill-rule:nonzero;fill:rgb(80%,80%,80%);fill-opacity:1;" d="M 211.710938 35.257812 L 186.425781 35.257812 C 185.152344 35.257812 184.121094 34.222656 184.117188 32.949219 L 184.117188 9.835938 C 184.121094 8.558594 185.152344 7.527344 186.425781 7.523438 L 211.710938 7.523438 C 212.984375 7.527344 214.015625 8.558594 214.019531 9.835938 L 214.019531 32.949219 C 214.015625 34.222656 212.984375 35.257812 211.710938 35.257812 Z M 186.425781 8.257812 C 185.558594 8.257812 184.851562 8.964844 184.851562 9.835938 L 184.851562 32.949219 C 184.851562 33.816406 185.558594 34.523438 186.425781 34.523438 L 211.710938 34.523438 C 212.578125 34.523438 213.285156 33.816406 213.285156 32.949219 L 213.285156 9.835938 C 213.285156 8.964844 212.578125 8.257812 211.710938 8.257812 Z M 186.425781 8.257812 "/>
<path style=" stroke:none;fill-rule:nonzero;fill:rgb(80%,80%,80%);fill-opacity:1;" d="M 197.027344 15.691406 C 197.027344 17.433594 195.617188 18.847656 193.875 18.847656 C 192.136719 18.847656 190.722656 17.433594 190.722656 15.691406 C 190.722656 13.949219 192.136719 12.535156 193.875 12.535156 C 195.617188 12.535156 197.027344 13.949219 197.027344 15.691406 Z M 197.027344 15.691406 "/>
<path style=" stroke:none;fill-rule:nonzero;fill:rgb(80%,80%,80%);fill-opacity:1;" d="M 206.472656 23.640625 L 191.664062 23.640625 C 191.144531 23.640625 190.722656 23.222656 190.722656 22.703125 C 190.722656 22.183594 191.144531 21.761719 191.664062 21.761719 L 206.472656 21.761719 C 206.992188 21.761719 207.410156 22.183594 207.410156 22.703125 C 207.410156 23.222656 206.992188 23.640625 206.472656 23.640625 Z M 206.472656 23.640625 "/>
<path style=" stroke:none;fill-rule:nonzero;fill:rgb(80%,80%,80%);fill-opacity:1;" d="M 198.808594 27.355469 L 191.664062 27.355469 C 191.144531 27.355469 190.722656 26.933594 190.722656 26.414062 C 190.722656 25.898438 191.144531 25.476562 191.664062 25.476562 L 198.808594 25.476562 C 199.144531 25.476562 199.457031 25.652344 199.625 25.945312 C 199.792969 26.234375 199.792969 26.59375 199.625 26.886719 C 199.457031 27.175781 199.144531 27.355469 198.808594 27.355469 Z M 198.808594 27.355469 "/>
<path style=" stroke:none;fill-rule:nonzero;fill:rgb(80%,80%,80%);fill-opacity:1;" d="M 185.898438 41.675781 C 182.226562 41.675781 179.246094 38.691406 179.246094 35.011719 C 179.246094 31.332031 182.226562 28.347656 185.898438 28.347656 C 189.574219 28.347656 192.554688 31.332031 192.554688 35.011719 C 192.554688 38.691406 189.574219 41.675781 185.898438 41.675781 Z M 185.898438 41.675781 "/>
<path style=" stroke:none;fill-rule:nonzero;fill:rgb(100%,100%,100%);fill-opacity:1;" d="M 188.527344 34.355469 L 186.554688 34.355469 L 186.554688 32.382812 C 186.554688 32.019531 186.261719 31.726562 185.898438 31.726562 C 185.539062 31.726562 185.246094 32.019531 185.242188 32.382812 L 185.242188 34.355469 L 183.273438 34.355469 C 182.910156 34.355469 182.617188 34.648438 182.617188 35.011719 C 182.617188 35.375 182.910156 35.667969 183.273438 35.667969 L 185.242188 35.667969 L 185.242188 37.640625 C 185.242188 38.003906 185.539062 38.296875 185.898438 38.296875 C 186.261719 38.296875 186.554688 38.003906 186.554688 37.640625 L 186.554688 35.667969 L 188.527344 35.667969 C 188.886719 35.667969 189.183594 35.375 189.183594 35.011719 C 189.183594 34.648438 188.886719 34.355469 188.527344 34.355469 Z M 188.527344 34.355469 "/>
<path style=" stroke:none;fill-rule:nonzero;fill:rgb(100%,100%,100%);fill-opacity:1;" d="M 185.457031 139.8125 C 185.445312 139.8125 185.429688 139.8125 185.417969 139.8125 C 185.101562 139.800781 184.808594 139.636719 184.636719 139.367188 C 184 138.417969 183.222656 137.570312 182.324219 136.863281 C 181.78125 136.425781 181.214844 136.023438 180.667969 135.632812 C 179.253906 134.625 177.921875 133.679688 177.183594 132.367188 C 175.570312 129.511719 177.46875 125.53125 180.179688 123.746094 C 183.222656 121.746094 187.222656 121.433594 191.09375 121.390625 C 191.496094 121.386719 191.898438 121.382812 192.300781 121.382812 C 199.273438 121.386719 206.230469 122.023438 213.089844 123.289062 C 215.371094 123.707031 217.757812 124.226562 219.675781 125.476562 C 221.582031 126.722656 222.738281 128.683594 222.628906 130.472656 C 222.460938 133.085938 219.695312 135.035156 217.179688 135.546875 C 214.777344 136.03125 212.285156 135.703125 209.644531 135.355469 C 209.0625 135.28125 208.460938 135.199219 207.863281 135.132812 C 201.386719 134.382812 189.222656 136.691406 188.707031 136.789062 L 188.195312 136.886719 L 186.214844 139.441406 C 186.035156 139.675781 185.753906 139.816406 185.457031 139.8125 Z M 185.457031 139.8125 "/>
<path style=" stroke:none;fill-rule:nonzero;fill:rgb(80%,80%,80%);fill-opacity:1;" d="M 185.457031 140.179688 L 185.410156 140.179688 C 184.972656 140.167969 184.566406 139.9375 184.332031 139.570312 C 183.714844 138.652344 182.960938 137.835938 182.097656 137.148438 C 181.558594 136.71875 181 136.320312 180.457031 135.933594 C 179.007812 134.902344 177.644531 133.929688 176.863281 132.546875 C 175.152344 129.515625 177.132812 125.3125 179.980469 123.441406 C 183.097656 121.386719 187.164062 121.066406 191.089844 121.023438 C 191.492188 121.019531 191.894531 121.015625 192.300781 121.015625 C 199.296875 121.019531 206.277344 121.660156 213.15625 122.925781 C 215.472656 123.355469 217.898438 123.878906 219.875 125.167969 C 221.890625 126.484375 223.113281 128.578125 222.992188 130.496094 C 222.816406 133.289062 219.902344 135.367188 217.25 135.90625 C 214.789062 136.40625 212.265625 136.074219 209.597656 135.71875 C 209.015625 135.644531 208.414062 135.566406 207.820312 135.496094 C 201.382812 134.753906 189.289062 137.054688 188.777344 137.152344 L 188.402344 137.222656 L 186.503906 139.667969 C 186.253906 139.992188 185.867188 140.183594 185.457031 140.179688 Z M 192.300781 121.75 C 191.898438 121.75 191.496094 121.753906 191.097656 121.757812 C 187.28125 121.796875 183.34375 122.105469 180.382812 124.054688 C 177.804688 125.75 175.988281 129.507812 177.503906 132.1875 C 178.199219 133.425781 179.503906 134.351562 180.878906 135.332031 C 181.433594 135.726562 182.003906 136.132812 182.554688 136.574219 C 183.480469 137.308594 184.285156 138.183594 184.941406 139.167969 C 185.050781 139.335938 185.234375 139.4375 185.433594 139.445312 L 185.457031 139.449219 C 185.640625 139.449219 185.816406 139.363281 185.925781 139.214844 L 187.992188 136.554688 L 188.640625 136.429688 C 189.15625 136.332031 201.359375 134.007812 207.90625 134.765625 C 208.503906 134.835938 209.109375 134.914062 209.691406 134.992188 C 212.300781 135.335938 214.765625 135.660156 217.105469 135.1875 C 219.492188 134.703125 222.109375 132.878906 222.261719 130.449219 C 222.367188 128.789062 221.273438 126.957031 219.472656 125.785156 C 217.613281 124.570312 215.265625 124.0625 213.023438 123.648438 C 206.1875 122.390625 199.25 121.753906 192.300781 121.75 Z M 192.300781 121.75 "/>
<path style=" stroke:none;fill-rule:nonzero;fill:rgb(80%,80%,80%);fill-opacity:1;" d="M 214.296875 127.070312 L 186.925781 127.070312 C 186.597656 127.070312 186.332031 126.804688 186.332031 126.476562 C 186.332031 126.144531 186.597656 125.878906 186.925781 125.878906 L 214.296875 125.878906 C 214.625 125.878906 214.890625 126.144531 214.890625 126.476562 C 214.890625 126.804688 214.625 127.070312 214.296875 127.070312 Z M 214.296875 127.070312 "/>
<path style=" stroke:none;fill-rule:nonzero;fill:rgb(80%,80%,80%);fill-opacity:1;" d="M 214.296875 130.730469 L 186.925781 130.730469 C 186.710938 130.730469 186.515625 130.617188 186.40625 130.433594 C 186.300781 130.25 186.300781 130.023438 186.40625 129.835938 C 186.511719 129.652344 186.710938 129.539062 186.921875 129.539062 L 214.296875 129.539062 C 214.625 129.539062 214.890625 129.804688 214.890625 130.136719 C 214.890625 130.464844 214.625 130.730469 214.296875 130.730469 Z M 214.296875 130.730469 "/>
<path style=" stroke:none;fill-rule:nonzero;fill:rgb(80%,80%,80%);fill-opacity:1;" d="M 190.113281 134.390625 L 186.925781 134.390625 C 186.597656 134.390625 186.332031 134.125 186.332031 133.796875 C 186.332031 133.464844 186.597656 133.199219 186.925781 133.199219 L 190.113281 133.199219 C 190.441406 133.199219 190.707031 133.464844 190.707031 133.796875 C 190.707031 134.125 190.441406 134.390625 190.113281 134.390625 Z M 190.113281 134.390625 "/>
<path style=" stroke:none;fill-rule:nonzero;fill:rgb(100%,100%,100%);fill-opacity:1;" d="M 189.394531 142.542969 C 189.394531 144.734375 187.621094 146.511719 185.429688 146.511719 C 183.238281 146.511719 181.464844 144.734375 181.464844 142.542969 C 181.464844 140.347656 183.238281 138.570312 185.429688 138.570312 C 187.621094 138.570312 189.394531 140.347656 189.394531 142.542969 Z M 189.394531 142.542969 "/>
<path style=" stroke:none;fill-rule:nonzero;fill:rgb(80%,80%,80%);fill-opacity:1;" d="M 185.429688 146.558594 C 183.210938 146.558594 181.414062 144.761719 181.414062 142.542969 C 181.414062 140.320312 183.210938 138.523438 185.429688 138.523438 C 187.644531 138.523438 189.441406 140.320312 189.441406 142.542969 C 189.441406 144.761719 187.644531 146.558594 185.429688 146.558594 Z M 185.429688 146.558594 "/>
<path style=" stroke:none;fill-rule:nonzero;fill:rgb(100%,100%,100%);fill-opacity:1;" d="M 185.132812 144.128906 C 185.125 144.128906 185.117188 144.128906 185.105469 144.128906 C 184.957031 144.121094 184.816406 144.046875 184.722656 143.925781 L 184.058594 143.074219 C 183.882812 142.847656 183.925781 142.519531 184.152344 142.34375 L 184.175781 142.328125 C 184.402344 142.148438 184.726562 142.191406 184.902344 142.417969 C 184.972656 142.503906 185.074219 142.558594 185.183594 142.5625 C 185.292969 142.570312 185.402344 142.527344 185.476562 142.445312 L 186.820312 141.023438 C 187.019531 140.816406 187.347656 140.804688 187.554688 141.003906 L 187.578125 141.023438 C 187.785156 141.222656 187.792969 141.550781 187.597656 141.757812 L 185.507812 143.964844 C 185.410156 144.070312 185.273438 144.128906 185.132812 144.128906 Z M 185.132812 144.128906 "/>
<path style=" stroke:none;fill-rule:nonzero;fill:rgb(100%,72.156863%,72.156863%);fill-opacity:1;" d="M 60.421875 122.746094 C 60.265625 122.75 60.105469 122.761719 59.949219 122.792969 L 57.355469 106.335938 L 59.953125 90.496094 C 60.292969 88.429688 58.976562 86.449219 56.941406 85.964844 C 54.90625 85.484375 52.84375 86.660156 52.21875 88.660156 C 51.246094 91.78125 50.761719 95.039062 50.789062 98.3125 L 50.878906 109.117188 L 57.800781 125.707031 C 57.96875 127.117188 59.21875 128.140625 60.632812 128.03125 C 62.046875 127.917969 63.121094 126.707031 63.0625 125.289062 C 63.007812 123.867188 61.839844 122.746094 60.421875 122.746094 Z M 60.421875 122.746094 "/>
<path style=" stroke:none;fill-rule:nonzero;fill:rgb(18.431373%,18.039216%,25.490196%);fill-opacity:1;" d="M 49.402344 91.136719 C 49.398438 87.667969 52.207031 84.855469 55.667969 84.855469 C 59.132812 84.855469 61.9375 87.667969 61.933594 91.136719 L 57.863281 105.523438 L 50.789062 105.171875 Z M 49.402344 91.136719 "/>
<path style=" stroke:none;fill-rule:nonzero;fill:rgb(100%,72.156863%,72.156863%);fill-opacity:1;" d="M 64.265625 217.335938 L 68.308594 217.335938 L 70.234375 201.71875 L 64.265625 201.71875 Z M 64.265625 217.335938 "/>
<path style=" stroke:none;fill-rule:nonzero;fill:rgb(18.431373%,18.039216%,25.490196%);fill-opacity:1;" d="M 75.367188 221.902344 L 69.289062 217.699219 L 69.289062 214.957031 L 68.597656 215 L 64.265625 215.257812 L 62.894531 215.339844 L 62.113281 224.714844 L 62.089844 225.027344 L 64.960938 225.027344 L 65.019531 224.714844 L 65.472656 222.3125 L 66.632812 224.714844 L 66.785156 225.027344 L 74.394531 225.027344 C 75.335938 225.023438 76.101562 224.261719 76.105469 223.316406 C 76.105469 222.75 75.828125 222.222656 75.367188 221.902344 Z M 75.367188 221.902344 "/>
<path style=" stroke:none;fill-rule:nonzero;fill:rgb(100%,72.156863%,72.156863%);fill-opacity:1;" d="M 40.007812 208.003906 L 43.222656 210.460938 L 54.222656 199.21875 L 49.480469 195.589844 Z M 40.007812 208.003906 "/>
<path style=" stroke:none;fill-rule:nonzero;fill:rgb(18.431373%,18.039216%,25.490196%);fill-opacity:1;" d="M 46.0625 218.378906 L 43.78125 211.34375 L 45.445312 209.167969 L 44.871094 208.777344 L 41.269531 206.351562 L 40.132812 205.582031 L 33.828125 212.554688 L 33.617188 212.789062 L 35.898438 214.535156 L 36.132812 214.320312 L 37.953125 212.691406 L 37.417969 215.304688 L 37.347656 215.644531 L 43.394531 220.269531 C 44.144531 220.84375 45.21875 220.699219 45.792969 219.953125 C 46.136719 219.503906 46.234375 218.914062 46.0625 218.378906 Z M 46.0625 218.378906 "/>
<path style=" stroke:none;fill-rule:nonzero;fill:rgb(18.431373%,18.039216%,25.490196%);fill-opacity:1;" d="M 56.417969 140.523438 L 60.460938 152.949219 C 60.460938 152.949219 61.894531 166.207031 63.433594 169.144531 C 63.71875 169.738281 63.917969 170.375 64.019531 171.03125 C 64.0625 171.25 64.097656 171.480469 64.125 171.710938 C 64.183594 172.171875 64.222656 172.644531 64.25 173.121094 C 64.328125 175.148438 64.238281 177.179688 63.988281 179.191406 C 63.265625 179.824219 62.730469 185.515625 62.363281 192.539062 C 62.320312 193.269531 62.285156 194.011719 62.25 194.765625 C 62.175781 196.289062 62.109375 197.851562 62.050781 199.425781 C 61.628906 210.339844 61.863281 208.003906 61.863281 208.003906 C 72.113281 209.886719 71.691406 206.492188 71.691406 206.492188 C 71.691406 206.492188 75.210938 190.75 76.117188 183.578125 C 76.230469 182.742188 76.296875 182.207031 76.308594 182.050781 C 76.351562 181.292969 76.488281 180.542969 76.722656 179.820312 C 76.921875 179.535156 77.101562 179.238281 77.253906 178.929688 C 77.257812 178.929688 77.257812 178.929688 77.257812 178.925781 C 77.984375 177.347656 78.394531 175.644531 78.460938 173.910156 C 78.511719 173.160156 78.515625 172.40625 78.46875 171.652344 C 78.410156 167.253906 78.78125 162.859375 79.578125 158.53125 C 80.222656 155.578125 79.804688 149.867188 79.234375 144.972656 C 79.003906 142.953125 78.742188 141.074219 78.527344 139.589844 C 78.515625 139.527344 78.507812 139.464844 78.5 139.402344 C 78.222656 137.53125 78.019531 136.328125 78.019531 136.328125 C 78.019531 136.328125 78.953125 133.121094 78.261719 131.933594 C 77.941406 131.402344 77.984375 130.148438 78.121094 128.90625 C 78.289062 127.394531 78.605469 125.984375 78.605469 125.984375 L 59.570312 122.625 C 59.167969 123.292969 58.8125 123.933594 58.464844 124.554688 C 52.171875 136.199219 56.417969 140.523438 56.417969 140.523438 Z M 56.417969 140.523438 "/>
<path style=" stroke:none;fill-rule:nonzero;fill:rgb(32.54902%,90.196078%,85.882353%);fill-opacity:1;" d="M 50.976562 87.375 C 51.40625 86.1875 52.410156 85.300781 53.644531 85.019531 C 54.542969 84.765625 55.476562 84.664062 56.410156 84.71875 C 59.140625 84.828125 61.0625 79.683594 63.765625 80.082031 C 63.765625 80.082031 66.308594 79.171875 68.300781 80.835938 C 70.109375 82.351562 71.355469 86.464844 71.820312 86.230469 C 72.039062 86.183594 72.265625 86.183594 72.484375 86.230469 C 76.359375 86.777344 79.164062 90.21875 78.914062 94.132812 L 78.71875 97.46875 C 78.71875 97.46875 80.109375 99.566406 78.089844 103.265625 L 79.261719 116.320312 C 79.261719 116.320312 81.214844 134.503906 78.28125 137.09375 C 75.351562 139.679688 64.546875 128.394531 64.546875 128.394531 C 64.546875 128.394531 56.25 127.070312 56.742188 125.535156 C 57.234375 124 59.808594 119.738281 59.808594 119.738281 C 59.933594 119.253906 59.773438 118.742188 59.394531 118.414062 C 58.765625 118.015625 59.46875 117.105469 59.523438 117.023438 C 59.460938 117.082031 58.988281 117.582031 58.625 116.53125 C 58.261719 115.480469 59.378906 114.15625 59.378906 114.15625 L 56.21875 107.34375 L 53.734375 101.964844 L 53.433594 101.34375 L 51.339844 97.015625 L 51.289062 96.914062 C 50.183594 94.609375 49.941406 91.980469 50.601562 89.507812 C 50.820312 88.816406 50.945312 88.097656 50.976562 87.375 Z M 50.976562 87.375 "/>
<path style=" stroke:none;fill-rule:nonzero;fill:rgb(18.431373%,18.039216%,25.490196%);fill-opacity:1;" d="M 44.402344 198.683594 C 51.921875 205.90625 53.4375 202.832031 53.4375 202.832031 C 53.4375 202.832031 57.5 198.148438 62.363281 192.539062 C 64.105469 190.527344 65.949219 188.398438 67.746094 186.324219 C 70.226562 183.457031 72.613281 180.699219 74.511719 178.503906 C 76.613281 176.070312 78.109375 174.328125 78.460938 173.910156 C 78.511719 173.160156 78.515625 172.40625 78.46875 171.652344 C 78.410156 167.253906 78.78125 162.859375 79.578125 158.53125 C 80.222656 155.578125 79.804688 149.867188 79.234375 144.972656 C 78.382812 146.746094 77.402344 148.847656 76.589844 150.789062 C 75.679688 152.953125 74.972656 154.910156 74.863281 155.972656 C 74.511719 159.25 69.804688 164.667969 69.804688 164.667969 L 69.75 164.679688 C 68.976562 164.886719 66.792969 167.425781 64.019531 171.03125 C 56.4375 180.875 44.402344 198.683594 44.402344 198.683594 Z M 44.402344 198.683594 "/>
<path style=" stroke:none;fill-rule:nonzero;fill:rgb(100%,72.156863%,72.156863%);fill-opacity:1;" d="M 106.019531 83.914062 C 106.039062 84.070312 106.070312 84.226562 106.117188 84.378906 L 90.085938 88.832031 L 74.070312 88.046875 C 71.980469 87.941406 70.167969 89.476562 69.917969 91.554688 C 69.671875 93.636719 71.074219 95.554688 73.128906 95.949219 C 76.335938 96.5625 79.625 96.671875 82.867188 96.273438 L 93.578125 94.957031 L 109.253906 86.183594 C 110.632812 85.855469 111.507812 84.496094 111.234375 83.101562 C 110.960938 81.710938 109.640625 80.78125 108.238281 80.996094 C 106.835938 81.214844 105.855469 82.5 106.019531 83.914062 Z M 106.019531 83.914062 "/>
<path style=" stroke:none;fill-rule:nonzero;fill:rgb(18.431373%,18.039216%,25.490196%);fill-opacity:1;" d="M 75.90625 98.46875 C 72.464844 98.867188 69.359375 96.394531 68.964844 92.949219 C 68.570312 89.503906 71.039062 86.394531 74.480469 86 L 89.21875 88.417969 L 89.671875 95.496094 Z M 75.90625 98.46875 "/>
<path style=" stroke:none;fill-rule:nonzero;fill:rgb(100%,71.372549%,71.372549%);fill-opacity:1;" d="M 73.335938 74.578125 C 71.464844 78.007812 67.464844 79.679688 63.714844 78.597656 C 59.960938 77.515625 57.460938 73.976562 57.691406 70.074219 C 57.925781 66.171875 60.828125 62.953125 64.683594 62.328125 C 68.535156 61.699219 72.308594 63.835938 73.761719 67.460938 C 73.800781 67.558594 73.832031 67.652344 73.867188 67.753906 C 74.675781 70 74.480469 72.484375 73.335938 74.578125 Z M 73.335938 74.578125 "/>
<path style=" stroke:none;fill-rule:nonzero;fill:rgb(18.431373%,18.039216%,25.490196%);fill-opacity:1;" d="M 74.535156 67.753906 C 74.175781 66.746094 74.332031 67.273438 73.972656 66.269531 C 74.085938 66.761719 74.050781 67.28125 73.867188 67.753906 L 63.9375 67.753906 L 63.9375 61.972656 C 66.847656 60.816406 69.691406 59.835938 71.410156 61.972656 C 74.597656 61.972656 77.183594 64.5625 77.183594 67.753906 Z M 74.535156 67.753906 "/>
<path style=" stroke:none;fill-rule:nonzero;fill:rgb(18.431373%,18.039216%,25.490196%);fill-opacity:1;" d="M 71.015625 83.824219 C 71.007812 83.714844 70.996094 83.605469 70.980469 83.5 C 70.847656 82.710938 70.632812 81.945312 70.335938 81.203125 C 70.050781 80.398438 69.757812 79.585938 69.46875 78.78125 C 69.84375 80.246094 69.730469 81.789062 69.144531 83.183594 C 67.46875 81.878906 68.527344 78.886719 66.335938 78.886719 C 61.066406 78.886719 55.644531 74.609375 55.644531 69.328125 C 55.644531 64.050781 57.902344 60.105469 63.171875 60.105469 C 68.445312 60.105469 72.722656 62.523438 72.824219 67.800781 C 66.335938 69.328125 72.242188 83.289062 71.015625 83.824219 Z M 71.015625 83.824219 "/>
<path style=" stroke:none;fill-rule:nonzero;fill:rgb(18.431373%,18.039216%,25.490196%);fill-opacity:1;" d="M 62.410156 62.402344 C 62.410156 65.78125 59.675781 68.519531 56.300781 68.519531 C 52.925781 68.519531 50.191406 65.78125 50.191406 62.402344 C 50.191406 59.023438 52.925781 56.285156 56.300781 56.285156 C 59.675781 56.285156 62.410156 59.023438 62.410156 62.402344 Z M 62.410156 62.402344 "/>
<path style=" stroke:none;fill-rule:nonzero;fill:rgb(80%,80%,80%);fill-opacity:1;" d="M 0 224.730469 C 0 224.84375 0.046875 224.957031 0.128906 225.039062 C 0.210938 225.121094 0.320312 225.167969 0.4375 225.164062 L 103.179688 225.164062 C 103.421875 225.164062 103.617188 224.96875 103.617188 224.730469 C 103.617188 224.488281 103.421875 224.292969 103.179688 224.292969 L 0.4375 224.292969 C 0.320312 224.292969 0.210938 224.335938 0.128906 224.417969 C 0.046875 224.5 0 224.613281 0 224.730469 Z M 0 224.730469 "/>
</g>
</svg>
