<?xml version="1.0" encoding="UTF-8"?>
<svg xmlns="http://www.w3.org/2000/svg" xmlns:xlink="http://www.w3.org/1999/xlink" width="283px" height="225px" viewBox="0 0 282 225" version="1.1">
<g id="surface1">
<path style=" stroke:none;fill-rule:nonzero;fill:rgb(100%,71.372549%,71.372549%);fill-opacity:1;" d="M 247.628906 218.308594 L 241.769531 218.308594 L 238.980469 195.664062 L 247.632812 195.664062 Z M 247.628906 218.308594 "/>
<path style=" stroke:none;fill-rule:nonzero;fill:rgb(18.431373%,18.039216%,25.490196%);fill-opacity:1;" d="M 247.835938 224.433594 L 229.8125 224.429688 L 229.8125 224.203125 C 229.816406 220.324219 232.953125 217.175781 236.828125 217.175781 L 240.121094 214.675781 L 246.261719 217.175781 L 247.835938 217.175781 Z M 247.835938 224.433594 "/>
<path style=" stroke:none;fill-rule:nonzero;fill:rgb(100%,71.372549%,71.372549%);fill-opacity:1;" d="M 221.648438 218.308594 L 215.789062 218.308594 L 213 195.664062 L 221.648438 195.664062 Z M 221.648438 218.308594 "/>
<path style=" stroke:none;fill-rule:nonzero;fill:rgb(18.431373%,18.039216%,25.490196%);fill-opacity:1;" d="M 221.855469 224.433594 L 203.832031 224.429688 L 203.832031 224.203125 C 203.832031 220.324219 206.972656 217.175781 210.847656 217.175781 L 214.140625 214.675781 L 220.28125 217.175781 L 221.855469 217.175781 Z M 221.855469 224.433594 "/>
<path style=" stroke:none;fill-rule:nonzero;fill:rgb(18.431373%,18.039216%,25.490196%);fill-opacity:1;" d="M 218.855469 91.933594 L 252.667969 92.644531 C 252.667969 92.644531 258.746094 102.628906 254.105469 116.710938 L 254.625 120.632812 L 252.488281 126.695312 L 251.421875 145.234375 L 252.488281 148.085938 L 251.777344 153.433594 C 251.777344 153.433594 254.625 188.734375 247.507812 206.558594 L 238.964844 206.203125 L 235.761719 159.691406 L 237.542969 156.289062 L 237.183594 154.863281 L 232.914062 133.46875 L 228.644531 144.523438 L 228.644531 150.664062 L 224.726562 155.21875 C 224.726562 155.21875 226.152344 197.289062 222.238281 205.847656 L 212.671875 205.847656 L 209.066406 148.800781 L 212.628906 115.640625 L 211.914062 113.503906 L 212.984375 112.433594 L 212.273438 108.867188 Z M 218.855469 91.933594 "/>
<path style=" stroke:none;fill-rule:nonzero;fill:rgb(24.705882%,23.921569%,33.72549%);fill-opacity:1;" d="M 233.269531 26.863281 L 243.589844 24.367188 L 246.4375 31.140625 C 246.4375 31.140625 261.171875 38.984375 261.882812 49.683594 C 261.882812 49.683594 263.878906 58.238281 262.097656 62.160156 C 260.320312 66.082031 252.84375 78.5625 252.84375 78.5625 C 252.84375 78.5625 259.605469 100.3125 257.828125 101.378906 C 256.046875 102.449219 213.695312 100.3125 213.695312 98.171875 C 213.695312 96.03125 220.742188 73.570312 220.742188 73.570312 L 222.238281 35.0625 L 231.847656 31.5 Z M 233.269531 26.863281 "/>
<path style=" stroke:none;fill-rule:nonzero;fill:rgb(100%,71.372549%,71.372549%);fill-opacity:1;" d="M 260.785156 114.632812 C 258.625 113.539062 257.757812 110.902344 258.84375 108.738281 C 258.957031 108.519531 259.085938 108.320312 259.222656 108.128906 L 253.480469 68.683594 L 261.429688 68.9375 L 265.589844 107.371094 C 267.097656 108.652344 267.597656 110.839844 266.667969 112.6875 C 265.582031 114.851562 262.945312 115.722656 260.785156 114.632812 Z M 260.785156 114.632812 "/>
<path style=" stroke:none;fill-rule:nonzero;fill:rgb(100%,71.372549%,71.372549%);fill-opacity:1;" d="M 185.339844 96.015625 C 184.472656 93.753906 185.59375 91.214844 187.851562 90.34375 C 188.078125 90.253906 188.308594 90.191406 188.542969 90.144531 L 210.726562 57.050781 L 216.449219 62.589844 L 193.765625 93.867188 C 194.023438 95.828125 192.929688 97.789062 191.003906 98.53125 C 188.746094 99.402344 186.210938 98.273438 185.339844 96.015625 Z M 185.339844 96.015625 "/>
<path style=" stroke:none;fill-rule:nonzero;fill:rgb(24.705882%,23.921569%,33.72549%);fill-opacity:1;" d="M 246.296875 58.734375 C 244.050781 51 247.78125 43.113281 255.820312 43.152344 C 258.144531 43.160156 259.949219 43.835938 260.449219 45.707031 C 262.199219 52.25 263.15625 62.128906 263.15625 62.128906 L 265.230469 72.644531 L 263.972656 74.828125 L 266.597656 81.875 L 265.324219 85.207031 L 265.050781 102.234375 L 258.644531 101.878906 L 251.585938 88.898438 L 248.886719 87.289062 C 248.886719 87.289062 251.050781 66.304688 246.742188 60.261719 Z M 246.296875 58.734375 "/>
<path style=" stroke:none;fill-rule:nonzero;fill:rgb(24.705882%,23.921569%,33.72549%);fill-opacity:1;" d="M 217.601562 39.703125 C 221.347656 32.578125 230.9375 30.890625 236.695312 36.515625 C 238.355469 38.140625 239.1875 39.882812 238.25 41.574219 C 234.972656 47.5 227.375 53.878906 227.375 53.878906 L 218.015625 68.949219 L 215.597656 69.644531 L 212.59375 76.539062 L 206.164062 84.113281 L 197.648438 88.613281 L 192.664062 83.621094 L 193.722656 77.203125 L 206.546875 60.089844 C 206.546875 60.089844 215.769531 48.460938 216.859375 41.113281 Z M 217.601562 39.703125 "/>
<path style=" stroke:none;fill-rule:nonzero;fill:rgb(100%,71.372549%,71.372549%);fill-opacity:1;" d="M 235.230469 24.78125 C 235.46875 24.808594 235.703125 24.828125 235.9375 24.839844 C 236.664062 24.878906 237.382812 24.839844 238.074219 24.722656 C 240.179688 24.382812 242.089844 23.386719 243.566406 21.921875 C 245.125 20.375 246.191406 18.3125 246.480469 15.964844 C 247.15625 10.425781 243.21875 5.375 237.6875 4.699219 C 232.234375 4.027344 227.265625 7.847656 226.46875 13.261719 C 226.457031 13.347656 226.445312 13.425781 226.4375 13.511719 C 225.761719 19.054688 229.695312 24.101562 235.230469 24.78125 Z M 235.230469 24.78125 "/>
<path style=" stroke:none;fill-rule:nonzero;fill:rgb(18.431373%,18.039216%,25.490196%);fill-opacity:1;" d="M 224.195312 12.890625 C 225.628906 13.601562 227.96875 11.371094 228.867188 12.652344 C 229.011719 12.375 229.171875 12.109375 229.332031 11.855469 C 229.476562 11.628906 229.683594 11.140625 229.921875 11.058594 C 229.617188 11.789062 229.683594 12.773438 229.996094 13.617188 C 231.410156 14.148438 233.261719 12.976562 234.570312 11.589844 C 236.625 9.417969 239.976562 14.988281 239.183594 17.871094 C 240.195312 16.636719 242.382812 17.332031 243.125 18.746094 C 243.867188 20.152344 242.617188 21.28125 242.347656 22.851562 L 244.371094 22.59375 C 245.648438 21.347656 245.558594 19.25 246.609375 17.808594 C 248.367188 15.390625 249.046875 12.925781 247.726562 10.433594 C 246.554688 8.226562 246.445312 5.375 244.296875 4.101562 C 245.234375 3.644531 241.898438 4.363281 242.789062 2.863281 C 243.683594 1.367188 238.910156 1.1875 238.601562 1.988281 C 237.238281 0.351562 235.859375 -0.726562 234.183594 0.585938 C 232.535156 1.875 232.707031 3.230469 230.769531 3.105469 C 229.863281 3.050781 229.960938 4.746094 229.421875 5.488281 C 228.886719 6.222656 226.800781 6.695312 226.699219 6.617188 C 226.144531 6.183594 224.273438 9.859375 224.273438 9.859375 C 224.273438 9.859375 222.75 12.171875 224.195312 12.890625 Z M 224.195312 12.890625 "/>
<path style=" stroke:none;fill-rule:nonzero;fill:rgb(94.901961%,94.901961%,94.901961%);fill-opacity:1;" d="M 97.902344 77.066406 C 131.808594 77.066406 159.296875 104.601562 159.296875 138.566406 C 159.296875 172.53125 131.808594 200.066406 97.902344 200.066406 C 64 200.066406 17.074219 166.390625 36.511719 138.566406 C 55.949219 110.742188 64 77.066406 97.902344 77.066406 Z M 97.902344 77.066406 "/>
<path style=" stroke:none;fill-rule:nonzero;fill:rgb(24.705882%,23.921569%,33.72549%);fill-opacity:1;" d="M 180.070312 79.992188 C 179.519531 79.992188 179.074219 80.4375 179.074219 80.992188 L 179.074219 112.992188 C 179.074219 113.542969 179.519531 113.992188 180.070312 113.992188 C 180.621094 113.992188 181.070312 113.542969 181.070312 112.992188 L 181.070312 80.992188 C 181.070312 80.4375 180.621094 79.992188 180.070312 79.992188 Z M 180.070312 79.992188 "/>
<path style=" stroke:none;fill-rule:nonzero;fill:rgb(24.705882%,23.921569%,33.72549%);fill-opacity:1;" d="M 12.367188 55.992188 C 11.820312 55.992188 11.371094 56.4375 11.371094 56.992188 L 11.371094 64.992188 C 11.371094 65.542969 11.820312 65.992188 12.367188 65.992188 C 12.917969 65.992188 13.367188 65.542969 13.367188 64.992188 L 13.367188 56.992188 C 13.367188 56.4375 12.917969 55.992188 12.367188 55.992188 Z M 12.367188 55.992188 "/>
<path style=" stroke:none;fill-rule:nonzero;fill:rgb(24.705882%,23.921569%,33.72549%);fill-opacity:1;" d="M 12.367188 79.992188 C 11.820312 79.992188 11.371094 80.4375 11.371094 80.992188 L 11.371094 96.492188 C 11.371094 97.042969 11.820312 97.492188 12.367188 97.492188 C 12.917969 97.492188 13.367188 97.042969 13.367188 96.492188 L 13.367188 80.992188 C 13.367188 80.4375 12.917969 79.992188 12.367188 79.992188 Z M 12.367188 79.992188 "/>
<path style=" stroke:none;fill-rule:nonzero;fill:rgb(24.705882%,23.921569%,33.72549%);fill-opacity:1;" d="M 12.367188 101.992188 C 11.820312 101.992188 11.371094 102.4375 11.371094 102.992188 L 11.371094 118.492188 C 11.371094 119.042969 11.820312 119.492188 12.367188 119.492188 C 12.917969 119.492188 13.367188 119.042969 13.367188 118.492188 L 13.367188 102.992188 C 13.367188 102.4375 12.917969 101.992188 12.367188 101.992188 Z M 12.367188 101.992188 "/>
<path style=" stroke:none;fill-rule:nonzero;fill:rgb(24.705882%,23.921569%,33.72549%);fill-opacity:1;" d="M 101.898438 24.492188 C 101.347656 24.492188 100.898438 24.9375 100.898438 25.492188 L 100.898438 40.992188 C 100.898438 41.542969 101.347656 41.992188 101.898438 41.992188 C 102.449219 41.992188 102.894531 41.542969 102.894531 40.992188 L 102.894531 25.492188 C 102.894531 24.9375 102.449219 24.492188 101.898438 24.492188 Z M 101.898438 24.492188 "/>
<path style=" stroke:none;fill-rule:nonzero;fill:rgb(94.901961%,94.901961%,94.901961%);fill-opacity:1;" d="M 254.824219 216.304688 C 255.855469 216.367188 256.425781 215.085938 255.644531 214.335938 L 255.566406 214.027344 C 255.578125 214.003906 255.585938 213.980469 255.597656 213.953125 C 256.640625 211.464844 260.175781 211.480469 261.207031 213.976562 C 262.125 216.1875 263.292969 218.40625 263.582031 220.746094 C 263.710938 221.78125 263.652344 222.835938 263.425781 223.847656 C 265.574219 219.144531 266.707031 214.003906 266.707031 208.835938 C 266.707031 207.539062 266.636719 206.242188 266.488281 204.945312 C 266.371094 203.886719 266.207031 202.835938 265.992188 201.789062 C 264.84375 196.152344 262.351562 190.78125 258.757812 186.296875 C 257.027344 185.351562 255.585938 183.871094 254.71875 182.097656 C 254.40625 181.457031 254.160156 180.769531 254.042969 180.070312 C 254.238281 180.09375 254.785156 177.09375 254.636719 176.910156 C 254.910156 176.496094 255.402344 176.289062 255.699219 175.882812 C 257.1875 173.859375 259.238281 174.210938 260.308594 176.960938 C 262.597656 178.117188 262.621094 180.035156 261.214844 181.878906 C 260.324219 183.050781 260.199219 184.640625 259.417969 185.894531 C 259.496094 186 259.582031 186.097656 259.664062 186.203125 C 261.140625 188.101562 262.417969 190.140625 263.496094 192.285156 C 263.191406 189.902344 263.640625 187.03125 264.40625 185.183594 C 265.28125 183.074219 266.914062 181.296875 268.355469 179.472656 C 270.085938 177.285156 273.632812 178.242188 273.9375 181.015625 C 273.941406 181.042969 273.945312 181.070312 273.945312 181.097656 C 273.734375 181.21875 273.523438 181.347656 273.320312 181.480469 C 272.152344 182.253906 272.554688 184.070312 273.9375 184.28125 L 273.96875 184.289062 C 273.890625 185.058594 273.757812 185.824219 273.566406 186.578125 C 275.414062 193.734375 271.425781 196.34375 265.730469 196.460938 C 265.605469 196.523438 265.480469 196.589844 265.355469 196.648438 C 265.933594 198.277344 266.394531 199.945312 266.734375 201.640625 C 267.042969 203.132812 267.253906 204.644531 267.375 206.164062 C 267.523438 208.078125 267.507812 210.003906 267.347656 211.914062 L 267.359375 211.847656 C 267.765625 209.742188 268.90625 207.773438 270.566406 206.414062 C 273.035156 204.382812 276.519531 203.632812 279.183594 202 C 280.464844 201.214844 282.109375 202.230469 281.882812 203.71875 L 281.875 203.789062 C 281.476562 203.953125 281.089844 204.140625 280.714844 204.347656 C 280.503906 204.46875 280.292969 204.597656 280.089844 204.734375 C 278.921875 205.507812 279.324219 207.320312 280.707031 207.535156 L 280.738281 207.539062 C 280.761719 207.542969 280.78125 207.546875 280.804688 207.550781 C 280.125 209.167969 279.175781 210.667969 277.988281 211.964844 C 276.832031 218.210938 271.871094 218.804688 266.5625 216.984375 C 265.980469 219.515625 265.132812 221.992188 264.042969 224.347656 L 255.050781 224.347656 C 255.015625 224.25 254.988281 224.144531 254.960938 224.046875 C 255.789062 224.097656 256.628906 224.046875 257.449219 223.898438 C 256.78125 223.078125 256.113281 222.25 255.445312 221.429688 C 255.429688 221.414062 255.417969 221.398438 255.402344 221.378906 C 255.066406 220.960938 254.722656 220.542969 254.386719 220.125 C 254.363281 218.835938 254.519531 217.550781 254.824219 216.304688 Z M 254.824219 216.304688 "/>
<path style=" stroke:none;fill-rule:nonzero;fill:rgb(80%,80%,80%);fill-opacity:1;" d="M 0 224.375 C 0 224.707031 0.265625 224.96875 0.59375 224.96875 L 281.242188 224.96875 C 281.570312 224.96875 281.835938 224.707031 281.835938 224.375 C 281.835938 224.046875 281.570312 223.78125 281.242188 223.78125 L 0.59375 223.78125 C 0.265625 223.78125 0 224.046875 0 224.375 Z M 0 224.375 "/>
<path style=" stroke:none;fill-rule:nonzero;fill:rgb(32.54902%,90.196078%,85.882353%);fill-opacity:1;" d="M 71.0625 134.417969 L 36.511719 134.417969 L 36.511719 133.417969 L 71.0625 133.417969 C 74.0625 133.417969 76.503906 130.972656 76.503906 127.964844 L 76.503906 104.566406 L 77.503906 104.566406 L 77.503906 127.964844 C 77.503906 131.523438 74.613281 134.417969 71.0625 134.417969 Z M 71.0625 134.417969 "/>
<path style=" stroke:none;fill-rule:nonzero;fill:rgb(32.54902%,90.196078%,85.882353%);fill-opacity:1;" d="M 58.40625 185.148438 L 136.984375 185.148438 L 136.984375 186.148438 L 58.40625 186.148438 Z M 58.40625 185.148438 "/>
<path style=" stroke:none;fill-rule:nonzero;fill:rgb(90.196078%,90.196078%,90.196078%);fill-opacity:1;" d="M 186.839844 127.734375 L 144.867188 127.734375 C 142.605469 127.734375 140.761719 125.886719 140.761719 123.617188 L 140.761719 82.085938 C 140.761719 79.816406 142.605469 77.96875 144.867188 77.96875 L 186.839844 77.96875 C 189.105469 77.96875 190.949219 79.816406 190.949219 82.085938 L 190.949219 123.617188 C 190.949219 125.886719 189.105469 127.734375 186.839844 127.734375 Z M 186.839844 127.734375 "/>
<path style=" stroke:none;fill-rule:nonzero;fill:rgb(100%,100%,100%);fill-opacity:1;" d="M 152.683594 79.195312 C 146.777344 79.195312 141.984375 83.996094 141.984375 89.914062 L 141.984375 122.738281 C 141.984375 124.820312 143.667969 126.507812 145.75 126.507812 L 171.414062 126.507812 C 181.527344 126.507812 189.722656 118.292969 189.722656 108.164062 L 189.722656 82.964844 C 189.722656 80.882812 188.039062 79.195312 185.960938 79.195312 Z M 152.683594 79.195312 "/>
<path style=" stroke:none;fill-rule:nonzero;fill:rgb(90.196078%,90.196078%,90.196078%);fill-opacity:1;" d="M 177.09375 91.265625 L 154.523438 91.265625 C 154.09375 91.265625 153.746094 90.914062 153.746094 90.484375 C 153.746094 90.050781 154.09375 89.703125 154.523438 89.703125 L 177.09375 89.703125 C 177.527344 89.703125 177.875 90.050781 177.875 90.484375 C 177.875 90.914062 177.527344 91.265625 177.09375 91.265625 Z M 177.09375 91.265625 "/>
<path style=" stroke:none;fill-rule:nonzero;fill:rgb(90.196078%,90.196078%,90.196078%);fill-opacity:1;" d="M 177.09375 107.949219 L 154.523438 107.949219 C 154.09375 107.949219 153.746094 107.597656 153.746094 107.164062 C 153.746094 106.734375 154.09375 106.382812 154.523438 106.382812 L 177.09375 106.382812 C 177.527344 106.382812 177.875 106.734375 177.875 107.164062 C 177.875 107.597656 177.527344 107.949219 177.09375 107.949219 Z M 177.09375 107.949219 "/>
<path style=" stroke:none;fill-rule:nonzero;fill:rgb(90.196078%,90.196078%,90.196078%);fill-opacity:1;" d="M 186.261719 99.613281 L 145.359375 99.613281 C 144.929688 99.613281 144.578125 99.261719 144.578125 98.828125 C 144.578125 98.398438 144.929688 98.046875 145.359375 98.046875 L 186.261719 98.046875 C 186.691406 98.046875 187.042969 98.398438 187.042969 98.828125 C 187.042969 99.261719 186.691406 99.613281 186.261719 99.613281 Z M 186.261719 99.613281 "/>
<path style=" stroke:none;fill-rule:nonzero;fill:rgb(90.196078%,90.196078%,90.196078%);fill-opacity:1;" d="M 186.679688 114.730469 L 171.902344 114.730469 C 171.472656 114.730469 171.121094 114.378906 171.121094 113.949219 C 171.121094 113.515625 171.472656 113.164062 171.902344 113.164062 L 186.679688 113.164062 C 187.109375 113.164062 187.460938 113.515625 187.460938 113.949219 C 187.460938 114.378906 187.109375 114.730469 186.679688 114.730469 Z M 186.679688 114.730469 "/>
<path style=" stroke:none;fill-rule:nonzero;fill:rgb(90.196078%,90.196078%,90.196078%);fill-opacity:1;" d="M 98.679688 210.484375 L 65.351562 210.484375 C 63.554688 210.484375 62.089844 209.019531 62.089844 207.21875 L 62.089844 174.238281 C 62.089844 172.4375 63.554688 170.96875 65.351562 170.96875 L 98.679688 170.96875 C 100.480469 170.96875 101.941406 172.4375 101.941406 174.238281 L 101.941406 207.21875 C 101.941406 209.019531 100.480469 210.484375 98.679688 210.484375 Z M 98.679688 210.484375 "/>
<path style=" stroke:none;fill-rule:nonzero;fill:rgb(100%,100%,100%);fill-opacity:1;" d="M 71.558594 171.945312 C 66.867188 171.945312 63.0625 175.753906 63.0625 180.457031 L 63.0625 206.519531 C 63.0625 208.171875 64.402344 209.511719 66.050781 209.511719 L 86.429688 209.511719 C 94.460938 209.511719 100.96875 202.988281 100.96875 194.945312 L 100.96875 174.9375 C 100.96875 173.285156 99.632812 171.945312 97.980469 171.945312 Z M 71.558594 171.945312 "/>
<path style=" stroke:none;fill-rule:nonzero;fill:rgb(90.196078%,90.196078%,90.196078%);fill-opacity:1;" d="M 90.941406 181.527344 L 73.019531 181.527344 C 72.679688 181.527344 72.398438 181.25 72.398438 180.90625 C 72.398438 180.5625 72.679688 180.285156 73.019531 180.285156 L 90.941406 180.285156 C 91.285156 180.285156 91.5625 180.5625 91.5625 180.90625 C 91.5625 181.25 91.285156 181.527344 90.941406 181.527344 Z M 90.941406 181.527344 "/>
<path style=" stroke:none;fill-rule:nonzero;fill:rgb(90.196078%,90.196078%,90.196078%);fill-opacity:1;" d="M 90.941406 194.773438 L 73.019531 194.773438 C 72.679688 194.773438 72.398438 194.496094 72.398438 194.152344 C 72.398438 193.808594 72.679688 193.53125 73.019531 193.53125 L 90.941406 193.53125 C 91.285156 193.53125 91.5625 193.808594 91.5625 194.152344 C 91.5625 194.496094 91.285156 194.773438 90.941406 194.773438 Z M 90.941406 194.773438 "/>
<path style=" stroke:none;fill-rule:nonzero;fill:rgb(90.196078%,90.196078%,90.196078%);fill-opacity:1;" d="M 98.21875 188.15625 L 65.742188 188.15625 C 65.402344 188.15625 65.121094 187.875 65.121094 187.535156 C 65.121094 187.191406 65.402344 186.914062 65.742188 186.914062 L 98.21875 186.914062 C 98.5625 186.914062 98.839844 187.191406 98.839844 187.535156 C 98.839844 187.875 98.5625 188.15625 98.21875 188.15625 Z M 98.21875 188.15625 "/>
<path style=" stroke:none;fill-rule:nonzero;fill:rgb(90.196078%,90.196078%,90.196078%);fill-opacity:1;" d="M 98.550781 200.160156 L 86.820312 200.160156 C 86.476562 200.160156 86.199219 199.882812 86.199219 199.539062 C 86.199219 199.195312 86.476562 198.917969 86.820312 198.917969 L 98.550781 198.917969 C 98.894531 198.917969 99.171875 199.195312 99.171875 199.539062 C 99.171875 199.882812 98.894531 200.160156 98.550781 200.160156 Z M 98.550781 200.160156 "/>
<path style=" stroke:none;fill-rule:nonzero;fill:rgb(90.196078%,90.196078%,90.196078%);fill-opacity:1;" d="M 75.386719 104.3125 L 50.738281 104.3125 C 49.410156 104.3125 48.328125 103.230469 48.328125 101.894531 L 48.328125 77.507812 C 48.328125 76.171875 49.410156 75.089844 50.738281 75.089844 L 75.386719 75.089844 C 76.714844 75.089844 77.796875 76.171875 77.796875 77.507812 L 77.796875 101.894531 C 77.796875 103.230469 76.714844 104.3125 75.386719 104.3125 Z M 75.386719 104.3125 "/>
<path style=" stroke:none;fill-rule:nonzero;fill:rgb(100%,100%,100%);fill-opacity:1;" d="M 55.328125 75.808594 C 51.859375 75.808594 49.046875 78.628906 49.046875 82.105469 L 49.046875 101.378906 C 49.046875 102.601562 50.035156 103.59375 51.253906 103.59375 L 66.328125 103.59375 C 72.265625 103.59375 77.078125 98.769531 77.078125 92.820312 L 77.078125 78.023438 C 77.078125 76.800781 76.089844 75.808594 74.871094 75.808594 Z M 55.328125 75.808594 "/>
<path style=" stroke:none;fill-rule:nonzero;fill:rgb(90.196078%,90.196078%,90.196078%);fill-opacity:1;" d="M 69.664062 82.898438 L 56.410156 82.898438 C 56.15625 82.898438 55.949219 82.691406 55.949219 82.4375 C 55.949219 82.183594 56.15625 81.980469 56.410156 81.980469 L 69.664062 81.980469 C 69.917969 81.980469 70.121094 82.183594 70.121094 82.4375 C 70.121094 82.691406 69.917969 82.898438 69.664062 82.898438 Z M 69.664062 82.898438 "/>
<path style=" stroke:none;fill-rule:nonzero;fill:rgb(90.196078%,90.196078%,90.196078%);fill-opacity:1;" d="M 69.664062 92.695312 L 56.410156 92.695312 C 56.15625 92.695312 55.949219 92.488281 55.949219 92.234375 C 55.949219 91.980469 56.15625 91.773438 56.410156 91.773438 L 69.664062 91.773438 C 69.917969 91.773438 70.121094 91.980469 70.121094 92.234375 C 70.121094 92.488281 69.917969 92.695312 69.664062 92.695312 Z M 69.664062 92.695312 "/>
<path style=" stroke:none;fill-rule:nonzero;fill:rgb(90.196078%,90.196078%,90.196078%);fill-opacity:1;" d="M 75.046875 87.800781 L 51.027344 87.800781 C 50.773438 87.800781 50.570312 87.59375 50.570312 87.339844 C 50.570312 87.085938 50.773438 86.878906 51.027344 86.878906 L 75.046875 86.878906 C 75.300781 86.878906 75.503906 87.085938 75.503906 87.339844 C 75.503906 87.59375 75.300781 87.800781 75.046875 87.800781 Z M 75.046875 87.800781 "/>
<path style=" stroke:none;fill-rule:nonzero;fill:rgb(90.196078%,90.196078%,90.196078%);fill-opacity:1;" d="M 75.292969 96.675781 L 66.613281 96.675781 C 66.363281 96.675781 66.15625 96.472656 66.15625 96.21875 C 66.15625 95.964844 66.363281 95.757812 66.613281 95.757812 L 75.292969 95.757812 C 75.542969 95.757812 75.75 95.964844 75.75 96.21875 C 75.75 96.472656 75.542969 96.675781 75.292969 96.675781 Z M 75.292969 96.675781 "/>
<path style=" stroke:none;fill-rule:nonzero;fill:rgb(32.54902%,90.196078%,85.882353%);fill-opacity:1;" d="M 152.308594 130.066406 C 152.308594 132.828125 150.074219 135.066406 147.316406 135.066406 C 144.558594 135.066406 142.324219 132.828125 142.324219 130.066406 C 142.324219 127.304688 144.558594 125.066406 147.316406 125.066406 C 150.074219 125.066406 152.308594 127.304688 152.308594 130.066406 Z M 152.308594 130.066406 "/>
<path style=" stroke:none;fill-rule:nonzero;fill:rgb(32.54902%,90.196078%,85.882353%);fill-opacity:1;" d="M 81.933594 104.566406 C 81.933594 107.328125 79.699219 109.566406 76.941406 109.566406 C 74.183594 109.566406 71.949219 107.328125 71.949219 104.566406 C 71.949219 101.804688 74.183594 99.566406 76.941406 99.566406 C 79.699219 99.566406 81.933594 101.804688 81.933594 104.566406 Z M 81.933594 104.566406 "/>
<path style=" stroke:none;fill-rule:nonzero;fill:rgb(32.54902%,90.196078%,85.882353%);fill-opacity:1;" d="M 105.890625 173.066406 C 105.890625 175.828125 103.65625 178.066406 100.898438 178.066406 C 98.140625 178.066406 95.90625 175.828125 95.90625 173.066406 C 95.90625 170.304688 98.140625 168.066406 100.898438 168.066406 C 103.65625 168.066406 105.890625 170.304688 105.890625 173.066406 Z M 105.890625 173.066406 "/>
<path style=" stroke:none;fill-rule:nonzero;fill:rgb(94.901961%,94.901961%,94.901961%);fill-opacity:1;" d="M 117.902344 33.324219 C 117.902344 29.957031 115.117188 27.226562 111.679688 27.226562 C 108.246094 27.226562 105.460938 29.957031 105.460938 33.324219 C 105.460938 36.695312 108.246094 39.425781 111.679688 39.425781 C 115.117188 39.425781 117.902344 36.695312 117.902344 33.324219 Z M 117.902344 33.324219 "/>
<path style=" stroke:none;fill-rule:nonzero;fill:rgb(94.901961%,94.901961%,94.901961%);fill-opacity:1;" d="M 161.546875 31.238281 L 128.066406 31.238281 C 126.917969 31.238281 125.980469 30.304688 125.980469 29.152344 C 125.980469 28 126.917969 27.066406 128.066406 27.066406 L 161.546875 27.066406 C 162.695312 27.066406 163.632812 28 163.632812 29.152344 C 163.632812 30.304688 162.695312 31.238281 161.546875 31.238281 Z M 161.546875 31.238281 "/>
<path style=" stroke:none;fill-rule:nonzero;fill:rgb(94.901961%,94.901961%,94.901961%);fill-opacity:1;" d="M 187.679688 38.300781 L 128.066406 38.300781 C 126.917969 38.300781 125.980469 37.367188 125.980469 36.214844 C 125.980469 35.066406 126.917969 34.128906 128.066406 34.128906 L 187.679688 34.128906 C 188.828125 34.128906 189.761719 35.066406 189.761719 36.214844 C 189.761719 37.367188 188.828125 38.300781 187.679688 38.300781 Z M 187.679688 38.300781 "/>
<path style=" stroke:none;fill-rule:nonzero;fill:rgb(94.901961%,94.901961%,94.901961%);fill-opacity:1;" d="M 25.667969 61.117188 C 25.667969 58.9375 23.863281 57.167969 21.640625 57.167969 C 19.417969 57.167969 17.617188 58.9375 17.617188 61.117188 C 17.617188 63.296875 19.417969 65.066406 21.640625 65.066406 C 23.863281 65.066406 25.667969 63.296875 25.667969 61.117188 Z M 25.667969 61.117188 "/>
<path style=" stroke:none;fill-rule:nonzero;fill:rgb(94.901961%,94.901961%,94.901961%);fill-opacity:1;" d="M 53.914062 59.765625 L 32.246094 59.765625 C 31.5 59.765625 30.898438 59.160156 30.898438 58.414062 C 30.898438 57.671875 31.5 57.066406 32.246094 57.066406 L 53.914062 57.066406 C 54.660156 57.066406 55.261719 57.671875 55.261719 58.414062 C 55.261719 59.160156 54.660156 59.765625 53.914062 59.765625 Z M 53.914062 59.765625 "/>
<path style=" stroke:none;fill-rule:nonzero;fill:rgb(94.901961%,94.901961%,94.901961%);fill-opacity:1;" d="M 70.828125 64.339844 L 32.246094 64.339844 C 31.5 64.339844 30.898438 63.730469 30.898438 62.988281 C 30.898438 62.242188 31.5 61.636719 32.246094 61.636719 L 70.828125 61.636719 C 71.570312 61.636719 72.175781 62.242188 72.175781 62.988281 C 72.175781 63.730469 71.570312 64.339844 70.828125 64.339844 Z M 70.828125 64.339844 "/>
<path style=" stroke:none;fill-rule:nonzero;fill:rgb(94.901961%,94.901961%,94.901961%);fill-opacity:1;" d="M 146.453125 201.617188 C 146.453125 199.4375 144.652344 197.667969 142.425781 197.667969 C 140.203125 197.667969 138.402344 199.4375 138.402344 201.617188 C 138.402344 203.796875 140.203125 205.566406 142.425781 205.566406 C 144.652344 205.566406 146.453125 203.796875 146.453125 201.617188 Z M 146.453125 201.617188 "/>
<path style=" stroke:none;fill-rule:nonzero;fill:rgb(94.901961%,94.901961%,94.901961%);fill-opacity:1;" d="M 174.699219 200.265625 L 153.03125 200.265625 C 152.289062 200.265625 151.683594 199.660156 151.683594 198.914062 C 151.683594 198.171875 152.289062 197.566406 153.03125 197.566406 L 174.699219 197.566406 C 175.445312 197.566406 176.050781 198.171875 176.050781 198.914062 C 176.050781 199.660156 175.445312 200.265625 174.699219 200.265625 Z M 174.699219 200.265625 "/>
<path style=" stroke:none;fill-rule:nonzero;fill:rgb(94.901961%,94.901961%,94.901961%);fill-opacity:1;" d="M 191.613281 204.839844 L 153.03125 204.839844 C 152.289062 204.839844 151.683594 204.230469 151.683594 203.488281 C 151.683594 202.742188 152.289062 202.136719 153.03125 202.136719 L 191.613281 202.136719 C 192.355469 202.136719 192.960938 202.742188 192.960938 203.488281 C 192.960938 204.230469 192.355469 204.839844 191.613281 204.839844 Z M 191.613281 204.839844 "/>
<path style=" stroke:none;fill-rule:nonzero;fill:rgb(90.196078%,90.196078%,90.196078%);fill-opacity:1;" d="M 93.039062 77.984375 L 94.035156 77.984375 L 94.035156 125.484375 L 93.039062 125.484375 Z M 93.039062 77.984375 "/>
<path style=" stroke:none;fill-rule:nonzero;fill:rgb(90.196078%,90.196078%,90.196078%);fill-opacity:1;" d="M 96.53125 125.484375 C 96.53125 127.140625 95.191406 128.484375 93.535156 128.484375 C 91.882812 128.484375 90.542969 127.140625 90.542969 125.484375 C 90.542969 123.828125 91.882812 122.484375 93.535156 122.484375 C 95.191406 122.484375 96.53125 123.828125 96.53125 125.484375 Z M 96.53125 125.484375 "/>
<path style=" stroke:none;fill-rule:nonzero;fill:rgb(90.196078%,90.196078%,90.196078%);fill-opacity:1;" d="M 141.949219 159.984375 C 141.949219 161.640625 140.609375 162.984375 138.957031 162.984375 C 137.300781 162.984375 135.960938 161.640625 135.960938 159.984375 C 135.960938 158.328125 137.300781 156.984375 138.957031 156.984375 C 140.609375 156.984375 141.949219 158.328125 141.949219 159.984375 Z M 141.949219 159.984375 "/>
<path style=" stroke:none;fill-rule:nonzero;fill:rgb(90.196078%,90.196078%,90.196078%);fill-opacity:1;" d="M 61.09375 118.984375 C 61.09375 120.640625 59.753906 121.984375 58.097656 121.984375 C 56.445312 121.984375 55.105469 120.640625 55.105469 118.984375 C 55.105469 117.328125 56.445312 115.984375 58.097656 115.984375 C 59.753906 115.984375 61.09375 117.328125 61.09375 118.984375 Z M 61.09375 118.984375 "/>
<path style=" stroke:none;fill-rule:nonzero;fill:rgb(90.196078%,90.196078%,90.196078%);fill-opacity:1;" d="M 40.617188 119.488281 L 56.992188 118.988281 L 57.023438 119.988281 L 40.644531 120.488281 Z M 40.617188 119.488281 "/>
<path style=" stroke:none;fill-rule:nonzero;fill:rgb(90.196078%,90.196078%,90.196078%);fill-opacity:1;" d="M 163.320312 171.46875 L 138.484375 171.46875 L 138.484375 159.984375 L 139.484375 159.984375 L 139.484375 170.46875 L 163.320312 170.46875 Z M 163.320312 171.46875 "/>
<path style=" stroke:none;fill-rule:nonzero;fill:rgb(90.196078%,90.196078%,90.196078%);fill-opacity:1;" d="M 59.863281 151.742188 C 59.863281 153.398438 58.523438 154.742188 56.871094 154.742188 C 55.214844 154.742188 53.875 153.398438 53.875 151.742188 C 53.875 150.085938 55.214844 148.742188 56.871094 148.742188 C 58.523438 148.742188 59.863281 150.085938 59.863281 151.742188 Z M 59.863281 151.742188 "/>
<path style=" stroke:none;fill-rule:nonzero;fill:rgb(90.196078%,90.196078%,90.196078%);fill-opacity:1;" d="M 80.9375 163.226562 L 56.101562 163.226562 L 56.101562 151.742188 L 57.101562 151.742188 L 57.101562 162.226562 L 80.9375 162.226562 Z M 80.9375 163.226562 "/>
<path style=" stroke:none;fill-rule:nonzero;fill:rgb(90.196078%,90.196078%,90.196078%);fill-opacity:1;" d="M 37.644531 140.328125 L 156.925781 140.328125 L 156.925781 141.328125 L 37.644531 141.328125 Z M 37.644531 140.328125 "/>
</g>
</svg>
